<?xml version="1.0" encoding="UTF-8" standalone="no"?>
<svg
   version="1.0"
   width="1300pt"
   height="570pt"
   viewBox="0 0 1300 570"
   preserveAspectRatio="xMidYMid"
   id="svg16"
   sodipodi:docname="CommRaT.svg"
   inkscape:version="1.4.3 (fcd0343856, 2026-01-01)"
   xmlns:inkscape="http://www.inkscape.org/namespaces/inkscape"
   xmlns:sodipodi="http://sodipodi.sourceforge.net/DTD/sodipodi-0.dtd"
   xmlns="http://www.w3.org/2000/svg"
   xmlns:svg="http://www.w3.org/2000/svg">
  <defs
     id="defs16" />
  <sodipodi:namedview
     id="namedview16"
     pagecolor="#ffffff"
     bordercolor="#000000"
     borderopacity="0.25"
     inkscape:showpageshadow="2"
     inkscape:pageopacity="0.0"
     inkscape:pagecheckerboard="0"
     inkscape:deskcolor="#d1d1d1"
     inkscape:document-units="pt"
     inkscape:zoom="0.22310371"
     inkscape:cx="1259.5039"
     inkscape:cy="163.60105"
     inkscape:window-width="1534"
     inkscape:window-height="931"
     inkscape:window-x="66"
     inkscape:window-y="32"
     inkscape:window-maximized="1"
     inkscape:current-layer="g16" />
  <g
     transform="matrix(0.1,0,0,-0.1,0,949)"
     fill="#000000"
     stroke="none"
     id="g16">
    <path
       d="m 3310.7055,9118.2532 c -302.6444,-66.6695 -523.7063,-303.5216 -567.5679,-609.6748 l -10.5267,-69.3011 -65.7922,-5.2635 c -36.8437,-2.6316 -121.935,-12.2812 -189.4817,-21.9307 -66.6694,-9.6496 -124.5666,-14.9129 -127.1983,-10.5267 -3.509,3.5089 -14.9129,34.2119 -26.3169,67.5466 -85.9685,266.678 -318.4345,483.3537 -596.5164,558.7955 -65.7922,17.5446 -93.8636,20.1763 -241.2382,19.2991 -191.236,0 -250.8877,-12.2813 -380.7177,-73.6873 -168.42822,-80.7053 -279.83642,-191.2362 -356.15544,-353.5237 -49.1248,-103.5131 -61.4061,-161.4104 -61.4061,-295.6265 0,-128.0756 13.1585,-187.7272 65.7922,-303.5216 89.47752,-198.2539 292.11764,-376.3315 507.03904,-446.5099 45.6159,-14.9129 47.3704,-14.9129 70.1783,1.7544 26.317,19.2991 35.9664,65.7922 18.4219,86.8458 -6.1406,7.0178 -38.5982,26.3169 -73.6873,42.107 -91.232,42.107 -153.5153,84.2141 -228.9571,156.1469 -100.00422,95.618 -170.18262,207.9035 -201.76282,323.6978 -21.0536,78.9508 -21.0536,224.5709 0,288.6087 58.7744,175.446 157.02412,289.4858 316.67992,368.4365 111.4082,55.2655 163.1649,65.7923 324.5751,65.7923 120.1806,0 150.0064,-2.6317 208.7808,-20.1763 263.1689,-75.4418 478.9675,-306.1533 516.6884,-550.0231 12.2812,-81.5824 20.1762,-99.127 48.2476,-110.531 19.299,-7.0178 31.5803,-6.1407 55.2655,5.2633 44.7387,21.9308 180.7093,45.616 321.0661,57.8973 263.169,21.9307 685.9938,-11.404 907.0558,-72.8102 156.1469,-42.9842 179.8321,-71.9328 320.1889,-386.8583 152.638,-341.2425 234.2204,-443.0011 300.8899,-371.9455 30.703,32.4575 24.5624,67.5467 -21.0536,135.0934 -48.2476,72.8101 -88.6002,155.2696 -170.1826,347.3831 -34.212,81.5823 -75.4418,170.1825 -92.9864,197.3767 -61.406,96.4953 -135.0933,157.9013 -241.2382,200.0084 -61.406,23.6852 -244.7471,60.5288 -350.8919,70.1784 -92.9864,7.8951 -92.9864,7.8951 -74.5646,75.4417 29.8259,107.0221 98.2497,180.7094 204.3946,219.3075 91.2319,33.3347 222.8164,21.0536 306.1532,-28.9486 33.3347,-20.1762 43.8615,-21.0535 50.8794,-3.5089 7.895,21.0535 -43.8616,71.9329 -105.2676,101.7587 -45.616,22.808 -69.3011,28.0713 -133.339,32.4575 -48.2476,2.6317 -96.4952,0 -125.4438,-7.0178 -150.0064,-35.0893 -271.0641,-162.2875 -300.0127,-316.6801 l -10.5268,-51.7565 h -57.8971 c -31.5803,0 -81.5824,2.6316 -111.4082,5.2634 l -52.6338,6.1406 4.3862,31.5803 c 9.6494,67.5466 30.703,139.4795 61.406,202.6401 24.5625,50.8793 48.2477,82.4596 107.022,140.3567 121.0578,121.0578 250.0106,175.446 411.4209,175.446 242.9927,0 449.1418,-121.9349 549.146,-324.5751 48.2476,-98.2497 61.406,-161.4102 55.2654,-263.1689 -5.2634,-95.6181 -23.6852,-151.7608 -71.9329,-224.5708 -24.5624,-35.9665 -39.4753,-68.424 -39.4753,-84.2142 0,-31.5802 35.0892,-68.4239 65.7923,-68.4239 50.8793,0 143.8656,136.8479 175.446,258.7828 18.4218,69.3012 18.4218,211.4124 0.8772,293.8721 -53.5111,250.8877 -271.064,464.9319 -543.8826,535.1102 -82.4596,21.0535 -257.0284,22.808 -342.9968,4.3862 z"
       id="path1"
       style="stroke-width:0.87723" />
    <path
       d="m 9489.6932,9122.8651 c -138.628,-30.0216 -268.427,-101.5434 -369.971,-202.2038 -208.385,-205.7357 -267.5447,-511.2486 -146.575,-753.1868 42.382,-83.8836 96.245,-143.0437 131.564,-143.0437 31.787,0 71.522,36.2025 71.522,64.458 0,12.3619 -13.245,41.5004 -30.022,65.341 -64.457,93.5965 -93.596,181.012 -93.596,282.5554 0,82.1176 15.011,139.5118 59.16,231.3422 98.895,202.2037 307.28,327.5877 543.036,327.5877 167.7678,0 301.9808,-55.6281 417.6518,-172.1822 38.852,-38.8514 83.884,-92.7135 99.778,-120.969 38.851,-66.224 70.638,-158.9375 74.171,-218.9805 l 2.649,-48.5642 -111.256,-2.649 -111.256,-2.6489 -5.298,44.1492 c -14.128,116.5542 -108.608,241.9381 -226.9278,299.3322 -58.277,27.3726 -75.937,32.6705 -146.575,35.3194 -58.277,2.649 -95.363,0 -132.449,-11.4788 -94.479,-26.4895 -183.66,-101.5433 -156.288,-128.9159 7.064,-7.0639 15.893,-5.2979 30.905,4.415 88.298,58.277 248.119,68.8728 345.247,22.9576 94.4788,-44.1493 178.3628,-155.4055 184.5438,-242.8211 l 2.649,-34.4364 -93.597,-10.5959 c -286.0868,-32.6704 -432.6618,-85.6495 -528.0248,-194.2568 -42.384,-48.5642 -108.607,-174.8312 -177.48,-339.0665 -58.277,-138.6288 -113.023,-248.1189 -153.64,-304.6301 -37.968,-52.0961 -40.617,-84.7665 -9.712,-114.7881 68.872,-69.7559 153.639,36.2024 303.747,379.6838 124.5,285.2044 166.001,338.1836 287.853,374.386 164.236,49.4472 367.3218,75.0537 657.8238,84.7666 231.342,7.9469 506.834,-20.3087 609.26,-62.692 23.841,-10.5958 35.32,-10.5958 53.862,-2.6489 28.256,11.4787 31.788,18.5427 47.682,101.5433 28.256,150.1075 99.777,276.3745 219.863,390.2797 83.883,78.5857 187.193,137.7457 296.683,169.5332 94.48,27.3726 271.077,33.5535 371.737,13.2448 280.79,-56.5111 478.579,-264.0127 506.834,-531.5574 12.362,-113.0221 -32.67,-268.4276 -111.257,-385.8647 -74.17,-112.1392 -212.798,-227.8103 -341.715,-285.2043 -65.34,-30.0216 -81.235,-44.1493 -81.235,-75.0538 0,-25.6067 33.554,-68.8729 53.863,-68.8729 19.425,0 168.65,63.5749 218.98,92.7135 126.267,74.1708 263.13,221.6294 326.705,352.3112 49.447,100.6604 71.522,188.076 77.703,296.6832 18.543,354.0773 -232.225,659.5904 -609.261,743.4739 -69.755,15.0108 -102.426,16.7768 -226.926,13.2449 -124.502,-3.532 -157.172,-7.947 -224.279,-27.3726 -214.566,-64.458 -373.503,-180.1291 -490.057,-358.4922 -45.032,-67.9899 -106.842,-200.4377 -106.842,-228.6933 0,-4.4149 -3.531,-18.5427 -7.946,-30.0215 -7.947,-21.1916 -8.83,-21.1916 -68.874,-10.5958 -32.669,6.1808 -103.309,15.8937 -157.171,22.0746 -52.979,5.2979 -113.021,11.4789 -132.447,14.1278 l -36.203,4.4149 -9.713,72.4049 c -5.298,39.7343 -16.776,92.7135 -24.723,116.5541 -44.15,132.4478 -141.278,272.8425 -240.172,347.8963 -71.522,53.8622 -198.672,119.203 -271.96,138.6287 -76.8198,20.3087 -282.5558,24.7236 -362.0238,7.064 z"
       id="path2"
       style="stroke-width:0.882986" />
    <path
       d="m 1365.5768,8755.9496 c -120.2814,-27.217 -194.9086,-67.6034 -268.6578,-145.7425 -68.4815,-72.8713 -93.9425,-134.3289 -98.33232,-233.5392 -4.3899,-87.7967 7.90172,-125.5493 40.38642,-125.5493 31.6069,0 37.7526,14.0475 40.3865,86.0408 5.2678,130.817 71.9933,226.5154 202.8104,287.9731 52.678,25.4611 77.2611,31.6068 143.1086,35.9967 231.7833,14.9254 407.3767,-104.4781 462.6886,-314.3122 25.461,-93.9425 23.7051,-96.5764 -67.6035,-143.9866 -85.1628,-43.0203 -150.1323,-86.0407 -197.5425,-130.817 -21.0712,-19.3153 -28.9729,-34.2408 -28.9729,-54.434 0,-54.4339 53.5559,-66.7255 99.2102,-22.8271 49.1662,46.5322 144.8646,104.478 222.1257,134.3289 90.4305,35.1187 104.478,50.9221 92.1865,105.356 -4.3899,21.0712 -13.1695,68.4815 -17.5594,104.4781 -19.3152,135.2069 -117.6475,277.4376 -242.3188,351.1868 -112.3798,65.8475 -264.2681,92.1865 -381.9157,65.8475 z"
       id="path3"
       style="stroke-width:0.877967" />
    <path
       d="m 11554.39,8783.7577 c -130.677,-26.3168 -227.777,-83.4878 -311.265,-183.3103 -79.858,-96.1925 -119.787,-209.6271 -126.139,-355.7308 -2.722,-64.4308 -1.815,-68.0608 19.964,-78.9505 12.705,-6.3523 65.339,-31.7617 117.972,-56.2635 52.634,-25.4094 123.417,-68.9682 157.901,-96.1925 34.484,-28.1318 68.969,-50.8187 75.321,-50.8187 16.335,0 57.171,40.8364 57.171,58.0785 0,38.114 -108.897,123.4168 -244.111,190.5701 l -84.396,42.6514 6.353,51.7261 c 27.224,224.1467 206.904,382.9552 433.774,382.9552 173.328,0 314.894,-75.3206 377.51,-201.4599 24.502,-47.1887 28.132,-65.3383 28.132,-126.1392 0,-74.4131 10.889,-98.915 45.373,-98.915 34.485,0 47.189,38.1141 43.559,128.8617 -3.63,104.3598 -29.039,163.3458 -108.897,248.6486 -67.153,71.6907 -166.976,124.3243 -273.15,144.2888 -84.396,16.3346 -135.214,16.3346 -215.072,0 z"
       id="path4"
       style="stroke-width:0.907477" />
    <path
       d="m 6730.48,7778.861 c -8.1703,-8.1703 -62.0944,-89.0564 -120.9206,-179.7469 -58.0092,-89.8734 -178.1128,-273.7054 -265.5351,-407.6985 -87.4224,-133.176 -204.2578,-312.1058 -258.9989,-396.26 -55.5581,-84.1542 -100.4948,-160.9551 -100.4948,-171.5765 0,-37.5835 5.7192,-38.4005 249.1945,-38.4005 126.6398,0 232.0368,-1.6341 234.4879,-4.0852 2.4511,-2.4511 -45.7537,-205.8918 -107.8481,-452.6352 -80.0691,-321.9102 -109.4822,-452.6352 -104.58,-465.7077 4.9022,-13.8895 11.4385,-17.9747 28.5961,-15.5236 26.962,3.2682 10.6214,-21.2428 363.5788,525.351 54.7411,85.7883 173.2106,267.1692 262.267,403.6133 89.8734,137.2613 166.6743,257.3648 171.5765,267.9862 5.7192,13.8896 4.9022,22.8769 -5.7192,39.2175 l -13.0725,20.4258 h -228.7687 c -203.4407,0 -228.7687,1.6341 -228.7687,13.0725 0,13.8895 43.3027,203.4407 131.542,571.9217 31.0472,130.725 56.3752,249.1945 56.3752,263.084 0,39.2175 -36.7664,55.5582 -62.9114,26.9621 z"
       id="path5"
       style="stroke-width:0.817031" />
    <path
       d="m 5224.2732,7337.735 c -197,-100 -425,-216 -508,-259 -82,-42 -253,-130 -380,-195 -126,-65 -236,-125 -242,-133 -7,-9 -13,-32 -13,-52 0,-20 6,-43 13,-52 6,-9 344,-182 749,-384 732,-365 737,-367 762,-350 23,15 26,23 26,74 0,72 -7,79 -146,149 -348,176 -1064,558 -1064,568 0,8 448,251 865,470 165,87 310,167 323,179 20,17 22,28 20,79 -2,48 -7,62 -25,74 -20,14 -45,2 -380,-168 z"
       id="path6" />
    <path
       d="m 7488.2732,7492 c -12,-13 -17,-36 -17,-75 0,-49 3,-58 28,-77 15,-12 146,-85 292,-162 612,-323 894,-479 883,-488 -20,-18 -753,-408 -1070,-569 -57,-29 -110,-62 -118,-74 -18,-26 -20,-118 -3,-135 7,-7 22,-12 35,-12 29,0 1473,714 1491,737 16,22 16,85 0,105 -7,9 -107,64 -223,123 -115,59 -273,140 -350,180 -422,217 -913,465 -922,465 -5,0 -17,-8 -26,-18 z"
       id="path7" />
    <path
       d="m 3528.2732,7606 c -41,-39 -42,-41 -42,-105 0,-69 15,-100 67,-139 34,-25 112,-25 147,1 89,66 95,185 12,255 -27,22 -42,27 -87,27 -50,0 -59,-4 -97,-39 z"
       id="path9" />
    <path
       d="m 9411.2732,7631 c -60,-33 -93,-121 -71,-189 7,-20 28,-50 47,-67 29,-25 43,-30 89,-30 59,0 102,27 130,81 34,64 6,167 -55,202 -34,20 -105,21 -140,3 z"
       id="path10" />
    <path
       d="m 2357.2732,7535 c -50,-44 -66,-79 -66,-143 0,-94 67,-161 160,-161 90,0 160,74 160,168 0,54 -16,89 -59,131 -27,24 -41,30 -95,33 -59,4 -65,2 -100,-28 z"
       id="path11" />
    <path
       d="m 10570.273,7542 c -47,-31 -81,-100 -76,-153 6,-56 25,-92 70,-128 93,-75 233,-9 253,120 8,56 -26,129 -75,161 -47,31 -125,31 -172,0 z"
       id="path12" />
    <path
       d="m 3306.2732,7150 c -151,-27 -271,-74 -392,-151 -91,-58 -105,-126 -37,-183 52,-42 266,-147 369,-180 l 90,-29 3,-140 3,-140 -58,-9 c -32,-4 -132,-8 -223,-8 -187,0 -245,13 -328,71 -53,39 -80,42 -113,16 -32,-27 -30,-75 5,-111 37,-38 147,-88 237,-107 41,-8 75,-16 76,-18 2,-1 21,-70 44,-152 22,-82 48,-165 58,-184 35,-69 110,-84 286,-55 189,30 203,41 254,198 22,67 47,153 57,190 14,57 21,70 43,78 43,15 55,24 69,53 16,32 8,62 -23,82 -22,14 -32,14 -119,-5 -53,-12 -98,-21 -101,-21 -3,0 -5,62 -5,139 v 138 l 63,39 c 77,48 217,185 246,241 26,52 27,108 3,148 -56,91 -298,139 -507,100 z m 300,-150 c 33,-9 61,-18 64,-20 2,-3 -9,-23 -25,-47 -32,-46 -112,-115 -191,-166 l -52,-33 -73,26 c -117,42 -298,126 -292,136 8,13 90,53 149,74 135,46 310,58 420,30 z m -121,-817 c -4,-13 -23,-75 -43,-138 l -36,-114 -65,-13 c -36,-8 -87,-12 -114,-11 l -49,3 -33,125 c -18,68 -31,126 -29,129 3,2 49,8 102,13 54,4 121,12 148,17 28,5 67,9 88,10 35,1 38,-1 31,-21 z"
       id="path13" />
    <path
       d="m 9464.2732,7145 c -139,-36 -193,-83 -193,-166 0,-81 118,-220 270,-318 l 70,-46 -1,-87 c 0,-49 -4,-109 -7,-134 l -7,-45 -70,13 c -146,27 -139,27 -159,4 -19,-21 -24,-70 -10,-92 3,-6 26,-20 49,-30 40,-18 43,-22 59,-86 26,-104 87,-285 104,-311 24,-37 84,-61 190,-77 129.9998,-20 216.9998,-19 251.9998,2 41,24 62,70 110,241 40,142 45,153 69,157 138,26 233,64 289,114 37,35 41,67 11,105 -27,35 -60,33 -115,-5 -90,-62 -140,-73 -334,-73 -96,-1 -196,3 -222,7 l -47.9998,8 v 142 142 l 87.9998,28 c 93,29 266,112 342,162 119,80 85,156 -115,254 -207,102 -446.9998,137 -621.9998,91 z m 326,-145 c 103.9998,-20 280.9998,-86 280.9998,-106 0,-8 -193,-95 -296.9998,-134 l -73,-27 -72,49 c -92,61 -212,182 -196,198 2,2 29,11 59,19 71,19 198,20 298,1 z m 86.9998,-824 c 58,-5 108,-12 111,-15 3,-2 -10,-60 -29,-128 l -34,-123 -44,-3 c -24,-2 -73,2 -110.9998,8 -65,11 -68,13 -82,48 -12,30 -46,138 -73,233 -4,14 4,14 76,3 44,-7 127.9998,-17 185.9998,-23 z"
       id="path14" />
    <path
       d="m 1558.2732,6978 c -9,-7 -19,-26 -23,-43 -9,-48 19,-68 122,-89 161,-33 617,-152 694,-182 30,-12 -357,-148 -605,-213 -88,-24 -170,-47 -182,-51 -48,-20 -36,-111 16,-118 40,-6 260,48 444,109 191,63 495,178 558,210 75,38 61,109 -26,142 -150,56 -617,181 -823,221 -153,30 -153,30 -175,14 z"
       id="path15" />
    <path
       d="m 11390.273,6970 c -204,-36 -654,-155 -819,-218 -86,-32 -107,-58 -89,-110 9,-26 25,-36 147,-87 311,-131 568,-216 776,-257 97,-20 111,-20 135,-7 29,16 41,70 21,94 -6,8 -44,21 -83,30 -171,38 -549,161 -707,228 l -35,15 25,10 c 14,5 113,35 220,65 190,54 273,75 470,116 98,21 120,35 120,78 0,28 -33,63 -57,62 -10,0 -66,-9 -124,-19 z"
       id="path16" />
    <text
       xml:space="preserve"
       style="font-style:normal;font-variant:normal;font-weight:bold;font-stretch:normal;font-size:1700px;line-height:0;font-family:FreeMono;-inkscape-font-specification:'FreeMono Bold';letter-spacing:-4.8px;writing-mode:lr-tb;direction:ltr;fill:#666666;stroke-width:7.5"
       x="4522.4346"
       y="-8040.374"
       id="text16"
       transform="scale(1,-1)"><tspan
         id="tspan16"
         style="font-style:normal;font-variant:normal;font-weight:bold;font-stretch:normal;font-size:1700px;font-family:FreeMono;-inkscape-font-specification:'FreeMono Bold';letter-spacing:-4.8px;fill:#000000;stroke-width:7.5"
         x="4522.4346"
         y="-8040.374"
         sodipodi:role="line">Comm</tspan></text>
    <text
       xml:space="preserve"
       style="font-style:normal;font-variant:normal;font-weight:bold;font-stretch:normal;font-size:1700px;line-height:0;font-family:FreeMono;-inkscape-font-specification:'FreeMono Bold';letter-spacing:0px;writing-mode:lr-tb;direction:ltr;fill:#000000;stroke-width:7.5"
       x="3971.4136"
       y="-4458.3711"
       id="text17"
       transform="scale(1,-1)"><tspan
         sodipodi:role="line"
         id="tspan17"
         style="font-style:normal;font-variant:normal;font-weight:bold;font-stretch:normal;font-size:1700px;font-family:FreeMono;-inkscape-font-specification:'FreeMono Bold';letter-spacing:0px;stroke-width:7.5"
         x="3971.4136"
         y="-4458.3711"> RaT  </tspan></text>
    <path
       d="m 3931.78,4210.342 c -10,35 -133,851 -141,937 l -6,68 79,51 c 94,62 212,175 275,264 58,82 138,241 138,275 0,36 -42,75 -80,75 -31,0 -80,-39 -80,-64 0,-21 -93,-171 -149,-240 -66,-82 -165,-163 -274,-225 -84,-48 -94,-64 -84,-129 45,-314 130,-885 141,-945 l 13,-78"
       id="path1-1" />
    <path
       d="m 9298.9222,4218.932 9,39 c 12,53 59,368 110,734 50,354 56,319 -62,387 -163,94 -285,224 -378,401 -54,103 -70,120 -115.9998,120 -32,0 -75,-41 -75,-72 0,-39 93.9998,-219 158.9998,-305 75,-99 149,-168 257,-238 l 81,-53 -14,-104 c -19,-143 -88,-610 -114,-773 l -22,-135"
       id="path1-7" />
    <path
       style="fill:none;stroke:#000000;stroke-width:150;stroke-linecap:round;stroke-linejoin:round;stroke-dasharray:none;stroke-opacity:1"
       id="path18"
       transform="matrix(0,-1,-1,0,0,0)"
       d="m -4088.2686,-1974.1775 a 1699.1914,1699.1914 0 0 1 -730.972,1396.3534 1699.1914,1699.1914 0 0 1 -1564.0052,194.9639"
       sodipodi:type="arc"
       sodipodi:arc-type="arc"
       sodipodi:open="true"
       sodipodi:start="0"
       sodipodi:end="1.929039"
       sodipodi:ry="1699.1914"
       sodipodi:rx="1699.1914"
       sodipodi:cy="-1974.1775"
       sodipodi:cx="-5787.46" />
    <path
       style="fill:none;stroke:#000000;stroke-width:130;stroke-linecap:round;stroke-linejoin:round;stroke-dasharray:none;stroke-opacity:1"
       id="path18-2-6-0"
       transform="scale(1,-1)"
       sodipodi:type="arc"
       sodipodi:cx="10966.405"
       sodipodi:cy="-5793.0474"
       sodipodi:rx="1699.1914"
       sodipodi:ry="1699.1914"
       sodipodi:start="5.9518225"
       sodipodi:end="1.5707963"
       sodipodi:arc-type="arc"
       d="m 12573.16,-6345.8487 a 1699.1914,1699.1914 0 0 1 -223.54,1539.6995 1699.1914,1699.1914 0 0 1 -1383.215,712.2932"
       sodipodi:open="true" />
    <path
       style="fill:#666666;stroke:#666666;stroke-width:147.615;stroke-linecap:round;stroke-linejoin:round;stroke-dasharray:147.615, 442.844;stroke-dashoffset:0;stroke-opacity:1"
       d="M 2301.1661,4090.8541 H 10793.365"
       id="path19"
       sodipodi:nodetypes="cc" />
    <path
       style="fill:none;stroke:#000000;stroke-width:130;stroke-linecap:round;stroke-linejoin:round;stroke-dasharray:none;stroke-opacity:1"
       d="m 12569.016,6350.9354 -618.452,981.37 v 0 0"
       id="path20"
       sodipodi:nodetypes="cccc" />
    <path
       style="fill:none;stroke:#000000;stroke-width:141.488;stroke-linecap:round;stroke-linejoin:round;stroke-dasharray:none;stroke-opacity:1"
       d="m 401.07276,6421.1339 780.22574,1040.422"
       id="path20-9"
       sodipodi:nodetypes="cc" />
  </g>
</svg>
